<?xml version="1.0" encoding="UTF-8" standalone="no"?>
<svg
   enable-background="new 0 0 24 24"
   height="40px"
   viewBox="0 0 24 24"
   width="40px"
   fill="#d40055"
   version="1.1"
   id="svg2"
   sodipodi:docname="calculate.svg"
   inkscape:version="1.4.2 (1:1.4.2+202505120738+ebf0e940d0)"
   xmlns:inkscape="http://www.inkscape.org/namespaces/inkscape"
   xmlns:sodipodi="http://sodipodi.sourceforge.net/DTD/sodipodi-0.dtd"
   xmlns="http://www.w3.org/2000/svg"
   xmlns:svg="http://www.w3.org/2000/svg">
  <defs
     id="defs2" />
  <sodipodi:namedview
     id="namedview2"
     pagecolor="#ffffff"
     bordercolor="#666666"
     borderopacity="1.0"
     inkscape:showpageshadow="2"
     inkscape:pageopacity="0.0"
     inkscape:pagecheckerboard="0"
     inkscape:deskcolor="#d1d1d1"
     inkscape:zoom="20.175"
     inkscape:cx="20"
     inkscape:cy="20"
     inkscape:window-width="1918"
     inkscape:window-height="1013"
     inkscape:window-x="1920"
     inkscape:window-y="32"
     inkscape:window-maximized="1"
     inkscape:current-layer="svg2" />
  <g
     id="g1">
    <rect
       fill="none"
       height="24"
       width="24"
       id="rect1" />
  </g>
  <g
     id="g2"
     style="fill:#d10002;fill-opacity:1">
    <path
       d="M21,3H3v18h18V3z M13.03,7.06L14.09,6l1.41,1.41L16.91,6l1.06,1.06l-1.41,1.41l1.41,1.41l-1.06,1.06L15.5,9.54l-1.41,1.41 l-1.06-1.06l1.41-1.41L13.03,7.06z M6.25,7.72h5v1.5h-5V7.72z M11.5,16h-2v2H8v-2H6v-1.5h2v-2h1.5v2h2V16z M18,17.25h-5v-1.5h5 V17.25z M18,14.75h-5v-1.5h5V14.75z"
       id="path1"
       style="fill:#d10002;fill-opacity:1" />
  </g>
</svg>
