<?xml version="1.0" encoding="UTF-8" standalone="no"?>
<svg
   enable-background="new 0 0 24 24"
   height="40px"
   viewBox="0 0 24 24"
   width="40px"
   fill="#d40055"
   version="1.1"
   id="svg1"
   sodipodi:docname="follow_the_signs.svg"
   inkscape:version="1.4.2 (1:1.4.2+202505120738+ebf0e940d0)"
   xmlns:inkscape="http://www.inkscape.org/namespaces/inkscape"
   xmlns:sodipodi="http://sodipodi.sourceforge.net/DTD/sodipodi-0.dtd"
   xmlns="http://www.w3.org/2000/svg"
   xmlns:svg="http://www.w3.org/2000/svg">
  <defs
     id="defs1" />
  <sodipodi:namedview
     id="namedview1"
     pagecolor="#ffffff"
     bordercolor="#666666"
     borderopacity="1.0"
     inkscape:showpageshadow="2"
     inkscape:pageopacity="0.0"
     inkscape:pagecheckerboard="0"
     inkscape:deskcolor="#d1d1d1"
     inkscape:zoom="20.175"
     inkscape:cx="20"
     inkscape:cy="20"
     inkscape:window-width="1918"
     inkscape:window-height="1013"
     inkscape:window-x="1920"
     inkscape:window-y="32"
     inkscape:window-maximized="1"
     inkscape:current-layer="svg1" />
  <rect
     fill="none"
     height="24"
     width="24"
     id="rect1" />
  <path
     d="M9.5,5.5c1.1,0,2-0.9,2-2s-0.9-2-2-2s-2,0.9-2,2S8.4,5.5,9.5,5.5z M5.75,8.9L3,23h2.1l1.75-8L9,17v6h2v-7.55L8.95,13.4 l0.6-3C10.85,12,12.8,13,15,13v-2c-1.85,0-3.45-1-4.35-2.45L9.7,6.95C9.35,6.35,8.7,6,8,6C7.75,6,7.5,6.05,7.25,6.15L2,8.3V13h2 V9.65L5.75,8.9 M13,2v7h3.75v14h1.5V9H22V2H13z M18.01,8V6.25H14.5v-1.5h3.51V3l2.49,2.5L18.01,8z"
     id="path1"
     style="fill:#d10002;fill-opacity:1" />
</svg>
