<?xml version="1.0" encoding="UTF-8" standalone="no"?>
<!-- img/madrid_flag.svg -->

<svg
   width="61.139999"
   height="27.969999"
   viewBox="0 0 61.139998 27.969999"
   aria-label="Bandera Comunidad de Madrid"
   role="img"
   version="1.1"
   id="svg7"
   sodipodi:docname="7estrellas.svg"
   inkscape:version="1.4.2 (1:1.4.2+202505120738+ebf0e940d0)"
   xmlns:inkscape="http://www.inkscape.org/namespaces/inkscape"
   xmlns:sodipodi="http://sodipodi.sourceforge.net/DTD/sodipodi-0.dtd"
   xmlns="http://www.w3.org/2000/svg"
   xmlns:svg="http://www.w3.org/2000/svg"
   xmlns:rdf="http://www.w3.org/1999/02/22-rdf-syntax-ns#"
   xmlns:cc="http://creativecommons.org/ns#"
   xmlns:dc="http://purl.org/dc/elements/1.1/">
  <defs
     id="defs7" />
  <sodipodi:namedview
     id="namedview7"
     pagecolor="#ffffff"
     bordercolor="#666666"
     borderopacity="1.0"
     inkscape:showpageshadow="2"
     inkscape:pageopacity="0.0"
     inkscape:pagecheckerboard="false"
     inkscape:deskcolor="#d1d1d1"
     inkscape:zoom="10.0875"
     inkscape:cx="36.431227"
     inkscape:cy="20.173482"
     inkscape:window-width="1918"
     inkscape:window-height="1013"
     inkscape:window-x="1920"
     inkscape:window-y="32"
     inkscape:window-maximized="1"
     inkscape:current-layer="svg7" />
  <title
     id="title1">Bandera de la Comunidad de Madrid</title>
  <g
     fill="#ffffff"
     id="g7"
     transform="translate(-6.83,-7.4)"
     style="fill:#ffffff">
    <!-- 4 estrellas arriba -->
    <polygon
       points="8.9,14.3 10.7,19.3 6,16.1 1.3,19.3 3.1,14.3 -1.3,11.1 4.1,11.1 6,6 7.9,11.1 13.3,11.1 "
       transform="matrix(0.9,0,0,0.9,8,2)"
       id="polygon1"
       style="fill:#ffffff" />
    <polygon
       points="8.9,14.3 10.7,19.3 6,16.1 1.3,19.3 3.1,14.3 -1.3,11.1 4.1,11.1 6,6 7.9,11.1 13.3,11.1 "
       transform="matrix(0.9,0,0,0.9,24,2)"
       id="polygon2"
       style="fill:#ffffff" />
    <polygon
       points="8.9,14.3 10.7,19.3 6,16.1 1.3,19.3 3.1,14.3 -1.3,11.1 4.1,11.1 6,6 7.9,11.1 13.3,11.1 "
       transform="matrix(0.9,0,0,0.9,40,2)"
       id="polygon3"
       style="fill:#ffffff" />
    <polygon
       points="8.9,14.3 10.7,19.3 6,16.1 1.3,19.3 3.1,14.3 -1.3,11.1 4.1,11.1 6,6 7.9,11.1 13.3,11.1 "
       transform="matrix(0.9,0,0,0.9,56,2)"
       id="polygon4"
       style="fill:#ffffff" />
    <!-- 3 estrellas abajo -->
    <polygon
       points="8.9,14.3 10.7,19.3 6,16.1 1.3,19.3 3.1,14.3 -1.3,11.1 4.1,11.1 6,6 7.9,11.1 13.3,11.1 "
       transform="matrix(0.9,0,0,0.9,16,18)"
       id="polygon5"
       style="fill:#ffffff" />
    <polygon
       points="8.9,14.3 10.7,19.3 6,16.1 1.3,19.3 3.1,14.3 -1.3,11.1 4.1,11.1 6,6 7.9,11.1 13.3,11.1 "
       transform="matrix(0.9,0,0,0.9,32,18)"
       id="polygon6"
       style="fill:#ffffff" />
    <polygon
       points="8.9,14.3 10.7,19.3 6,16.1 1.3,19.3 3.1,14.3 -1.3,11.1 4.1,11.1 6,6 7.9,11.1 13.3,11.1 "
       transform="matrix(0.9,0,0,0.9,48,18)"
       id="polygon7"
       style="fill:#ffffff" />
  </g>
  <metadata
     id="metadata7">
    <rdf:RDF>
      <cc:Work
         rdf:about="">
        <dc:title>Bandera de la Comunidad de Madrid</dc:title>
      </cc:Work>
    </rdf:RDF>
  </metadata>
</svg>
