<?xml version="1.0" encoding="UTF-8" standalone="no"?>
<!-- Creator: CorelDRAW -->

<svg
   xml:space="preserve"
   width="81.454071mm"
   height="28.567036mm"
   style="clip-rule:evenodd;fill-rule:evenodd;image-rendering:optimizeQuality;shape-rendering:geometricPrecision;text-rendering:geometricPrecision"
   viewBox="0 0 81.454071 28.567036"
   id="svg3070"
   version="1.1"
   xmlns="http://www.w3.org/2000/svg"
   xmlns:svg="http://www.w3.org/2000/svg"
   xmlns:rdf="http://www.w3.org/1999/02/22-rdf-syntax-ns#"
   xmlns:cc="http://creativecommons.org/ns#"
   xmlns:dc="http://purl.org/dc/elements/1.1/"><metadata
   id="metadata3153"><rdf:RDF><cc:Work
       rdf:about=""><dc:format>image/svg+xml</dc:format><dc:type
         rdf:resource="http://purl.org/dc/dcmitype/StillImage" /><dc:title /></cc:Work></rdf:RDF></metadata>
 <defs
   id="defs3072"><font
     id="FontID1"
     font-variant="normal"
     style="fill-rule:nonzero"
     font-style="normal,italic"
     font-weight="400"
     horiz-origin-x="0"
     horiz-origin-y="0"
     horiz-adv-x="1024"
     vert-origin-x="512"
     vert-origin-y="768"
     vert-adv-y="1024">
	<font-face
   font-family="Bodoni Bk BT"
   id="font-face3075">
	</font-face>
   <missing-glyph
   id="missing-glyph3077"><path
     d="M0 0z"
     id="path3079" /></missing-glyph>
   <glyph
   unicode="m"
   horiz-adv-x="711"
   id="glyph3081"><path
     d="M0.999655 0l93.3355 358.831 -74.3331 0 0 21.0017c26.6634,0 52.9996,0.667931 78.6634,2.16517 25.6683,1.50172 51.1662,3.6669 76.1665,6.67034l-24.83 -91.8338c22.9965,31.33 46.4996,54.4969 70.33,69.6665 23.669,15.1652 48.6693,22.6648 74.6693,22.6648 26.6634,0 47.1676,-6.5 61.4989,-19.5 14.3314,-13 21.4993,-31.6662 21.4993,-55.8327 0,-4.83241 0,-8.49931 -0.165862,-11.1665 -0.165862,-2.66724 -0.502069,-4.66655 -0.833793,-6.33414 21.1676,31.0027 43.6665,54.1652 67.6672,69.6665 23.8348,15.5014 49.6645,23.1669 77.332,23.1669 26.6679,0 47.4993,-5.99793 62.5031,-18.1641 14.9993,-12.0003 22.499,-28.6672 22.499,-50.1665 0,-6.33414 -0.336207,-12.8341 -1.17,-19.8362 -0.82931,-6.99758 -2.16517,-13.6679 -3.66241,-19.8317l-63.0007 -221c-1.66759,-5.6662 -2.66724,-10.001 -3.16931,-13 -0.497586,-3.16931 -0.663448,-6.16827 -0.663448,-9.00138 0,-4.33483 1.49724,-7.83138 4.83241,-10.8348 3.16483,-2.8331 7.66551,-4.33034 13.1659,-4.33034 16.6669,0 32.9976,9.49896 49.001,28.331 16.1648,18.8365 32.6659,47.8355 49.6645,86.8355l18.0028 -8.33345c-16.0034,-48.1672 -35.8352,-84.0024 -59.8358,-107.667 -23.8348,-23.4986 -52.3317,-35.3331 -85.1679,-35.3331 -18.1641,0 -32.6659,4.83241 -43.1645,14.6676 -10.669,9.66482 -15.999,23.3328 -15.999,40.4972 0,6.16827 0.833793,13.3362 2.33103,21.1676 1.33586,8.00172 4.16896,18.6662 8.00172,31.9979l55.6669 193.337c2.66724,8.83103 4.50069,16.4965 5.6662,23.1669 1.16552,6.66586 1.66759,12.1662 1.66759,16.3307 0,9.83517 -3.33517,17.169 -10.001,22.3331 -6.66586,5.00276 -16.3352,7.49965 -28.999,7.49965 -27.17,0 -55.1693,-14.4972 -84.0024,-43.6665 -28.999,-29.1648 -48.6648,-63.4983 -59.1679,-103.332l-56.1645 -210.833 -72.6655 0 73.6651 277.832c0.331724,0.999655 0.833793,2.50138 1.50172,4.83241 5.16414,19.5 7.83138,32.5 7.83138,39 0,11.8345 -3.6669,20.67 -10.8348,26.8338 -7.16345,6.16827 -17.1645,9.3331 -30.1645,9.3331 -26.5021,0 -53.6676,-14.1655 -81.8327,-42.6669 -28.1652,-28.4969 -47.3334,-61.3331 -57.5003,-98.3293l-59.002 -216.835 -70.832 0z"
     id="path3083" /></glyph>
   <glyph
   unicode="u"
   horiz-adv-x="496"
   id="glyph3085"><path
     d="M17.9983 358.831l0 21.0017c29.3352,0 56.6665,0.667931 82.3348,2.16517 25.5024,1.50172 49.3327,3.6669 71.5,6.67034l-81.1648 -311c-1.50172,-7.49965 -2.66724,-12.8341 -3.16931,-15.8331 -0.497586,-3.16931 -0.663448,-5.67069 -0.663448,-7.67 0,-11.0007 3.33069,-19.5 9.99655,-25.3321 6.66586,-5.83207 16.3352,-8.83103 29.0034,-8.83103 34.4993,0 65.6634,16.6624 93.1651,49.8303 27.4972,33.1679 49.4986,80.5014 66.1655,142l44.8321 168 71.8362 0 -80.1696 -304.169c-1.16552,-5.16414 -2.33103,-10.4986 -3.33069,-15.999 -0.999655,-5.6662 -1.50172,-10.1669 -1.50172,-13.6634 0,-7.50414 1.99931,-13.1703 5.83655,-17.169 3.99862,-3.83276 9.66482,-5.83207 17.1645,-5.83207 17.1645,0 33.6655,9.3331 49.4986,27.8334 15.8331,18.5003 31.6662,46.9972 47.6696,85.3338l18.9979 -8.33345c-14.3314,-44.1686 -33.6655,-78.6679 -57.832,-103.166 -24.3324,-24.5028 -50.6686,-36.8348 -79.3358,-36.8348 -21.4993,0 -38.4979,4.83241 -51.0003,14.3314 -12.6638,9.66931 -18.8321,22.6693 -18.8321,38.8341 0,4.66655 0.336207,11.1665 1.16552,19.8362 0.833793,8.49931 1.33586,14.3314 1.66759,17.3303 -24.6641,-31.3345 -49.001,-54.1652 -72.9972,-68.6669 -23.8348,-14.4972 -48.8352,-21.6652 -74.8351,-21.6652 -26.8338,0 -47.6652,5.99793 -63.0007,17.8324 -15.331,11.8345 -23.001,27.9993 -23.001,48.4989 0,4.0031 0.336207,8.49931 1.17,13.6679 0.833793,5.16862 2.16517,11.6686 3.6669,19.0024l68.8327 271.996 -73.6696 0z"
     id="path3087" /></glyph>
   <glyph
   unicode="t"
   horiz-adv-x="273"
   id="glyph3089"><path
     d="M2.99896 88.8348l77.1662 269.996 -65.9996 0 0 21.0017 71.8362 0 29.3307 105.999 71.6658 0 -28.6627 -105.999 72.6655 0 0 -21.0017 -79.9993 0 -82.1689 -292.832c-1.16552,-3.6669 -2.16517,-7.33379 -2.8331,-11.3324 -0.667931,-3.83276 -0.999655,-7.16793 -0.999655,-9.83517 0,-5.83207 1.99931,-10.3328 5.83207,-13.3317 4.0031,-3.16483 9.66931,-4.66655 17.169,-4.66655 15.4969,0 32.1638,10.1669 49.6645,30.3348 17.6665,20.1634 36.669,50.83 57.1686,91.8293l19.9976 -8.83103c-22.9965,-51.0003 -47.1631,-89.3324 -72.4996,-114.499 -25.1662,-25.1662 -52,-37.8345 -80.331,-37.8345 -19.8362,0 -35.8352,5.16414 -48.3331,15.6672 -12.3365,10.3328 -18.5003,23.8303 -18.5003,40.4972 0,5.50034 0.667931,12.0003 1.99931,19.3341 1.33138,7.33379 3.16483,15.8331 5.83207,25.5024z"
     id="path3091" /></glyph>
  </font><font
     id="FontID0"
     font-variant="normal"
     style="fill-rule:nonzero"
     font-weight="400"
     horiz-origin-x="0"
     horiz-origin-y="0"
     horiz-adv-x="1024"
     vert-origin-x="512"
     vert-origin-y="768"
     vert-adv-y="1024">
	<font-face
   font-family="Arial Rounded MT Bold"
   id="font-face3094">
	</font-face>
   <missing-glyph
   id="missing-glyph3096"><path
     d="M0 0z"
     id="path3098" /></missing-glyph>
   <glyph
   unicode="A"
   horiz-adv-x="719"
   id="glyph3100"><path
     d="M536.166 81.1656l-34.1682 89.8349 -290.998 0 -34.1682 -91.8351c-13.4976,-35.8342 -24.8304,-59.9962 -34.3328,-72.4963 -9.33263,-12.5001 -24.8304,-18.8349 -46.3341,-18.8349 -18.1665,0 -34.3328,6.66396 -48.3291,19.997 -14.0015,13.3331 -20.9997,28.5018 -20.9997,45.5011 0,9.66685 1.66599,19.8325 4.83343,30.1678 3.33198,10.4998 8.66417,25.0001 16.1663,43.5008l183.166 464.832c5.16251,13.3331 11.4974,29.3348 18.8298,48 7.33755,18.8349 15.0042,34.3328 23.3341,46.6683 8.33509,12.3304 19.3337,22.3315 32.8365,29.9981 13.4976,7.66664 30.1626,11.5025 50.0003,11.5025 20.1667,0 36.9963,-3.83589 50.499,-11.5025 13.4976,-7.66664 24.4962,-17.498 32.8313,-29.4993 8.16541,-12.0013 15.1687,-25.0001 20.9997,-38.832 5.66642,-13.8318 12.8343,-32.3325 21.6681,-55.3325l186.997 -462.004c14.67,-35.1658 22.0024,-60.6646 22.0024,-76.6664 0,-16.5005 -6.99818,-31.6641 -20.8352,-45.5011 -13.8318,-13.8318 -30.4969,-20.83 -50.0003,-20.83 -11.3328,0 -21.1642,2.00022 -29.3296,6.16519 -8.17055,4.00043 -15.0042,9.50231 -20.5009,16.5005 -5.50188,6.99818 -11.5025,17.8323 -17.8323,32.3325 -6.33487,14.5003 -11.8368,27.17 -16.336,38.3332zm-287.167 198.669l214.003 0 -108.001 295.333 -106.001 -295.333z"
     id="path3102" /></glyph>
   <glyph
   unicode="E"
   horiz-adv-x="666"
   id="glyph3104"><path
     d="M549.833 603.998l-326.668 0 0 -175.834 300.835 0c22.1669,0 38.6674,-4.99797 49.5015,-14.8294 10.8341,-10.0011 16.3308,-22.9999 16.3308,-39.3359 0,-16.3308 -5.3322,-29.4993 -15.9966,-39.8346 -10.8341,-10.1656 -27.5043,-15.3333 -49.8357,-15.3333l-300.835 0 0 -203.667 337.836 0c22.8302,0 39.9992,-5.3322 51.4966,-15.832 11.6671,-10.6644 17.3335,-24.6659 17.3335,-42.1639 0,-16.9993 -5.66642,-30.6666 -17.3335,-41.3361 -11.4974,-10.4998 -28.6663,-15.832 -51.4966,-15.832l-394.001 0c-31.4995,0 -54.3349,6.99818 -68.1667,20.9997 -13.8318,14.0015 -20.6655,36.6672 -20.6655,67.8325l0 538.166c0,20.8352 3.16744,37.8344 9.33263,51.0029 6.16519,13.1634 15.832,22.8302 29.0006,28.8309 13.1634,6.00065 29.9981,9.00354 50.499,9.00354l382.833 0c23.1645,0 40.3334,-5.16765 51.5017,-15.3333 11.1632,-10.3353 16.8296,-23.6684 16.8296,-40.3334 0,-17.0044 -5.66642,-30.502 -16.8296,-40.8373 -11.1683,-10.1656 -28.3372,-15.3333 -51.5017,-15.3333z"
     id="path3106" /></glyph>
   <glyph
   unicode="R"
   horiz-adv-x="719"
   id="glyph3108"><path
     d="M273.001 306.167l-50.8333 0 0 -229.999c0,-30.1678 -6.6691,-52.4992 -20.0022,-66.835 -13.3331,-14.3306 -30.8311,-21.4985 -52.3347,-21.4985 -22.9999,0 -40.9967,7.49695 -53.6665,22.5011 -12.6646,14.999 -18.9995,36.8317 -18.9995,65.8323l0 550.831c0,31.1705 7.00333,53.8361 20.9997,67.8325 14.0015,14.0015 36.6672,21.0048 67.8377,21.0048l235.83 0c32.5022,0 60.3356,-1.33691 83.5,-4.17012 23.1696,-2.66353 43.9996,-8.32995 62.5003,-16.8347 22.5011,-9.49717 42.3336,-22.9999 59.6671,-40.4979 17.1689,-17.6677 30.3323,-37.999 39.1662,-61.3331 8.9984,-23.1645 13.5027,-47.8355 13.5027,-73.9977 0,-53.3374 -15.0042,-96.0001 -45.1668,-127.834 -30.1678,-32.0035 -75.8334,-54.4995 -137.002,-67.8325 25.6686,-13.6673 50.3345,-34.0037 73.8332,-60.6698 23.3341,-26.6661 44.3338,-54.9982 62.6649,-85.166 18.3362,-30.1678 32.6668,-57.3327 43.0021,-81.4998 10.1656,-24.3317 15.3333,-41.0019 15.3333,-50.0003 0,-9.50231 -2.99775,-18.8349 -8.9984,-28.1676 -6.00065,-9.16808 -14.1661,-16.5005 -24.671,-21.9972 -10.4998,-5.33734 -22.496,-8.00086 -36.1633,-8.00086 -16.1663,0 -30.0032,3.83075 -41.0019,11.4974 -10.9986,7.66664 -20.5009,17.3335 -28.4967,29.0006 -8.00086,11.6671 -18.8349,29.0006 -32.5022,51.8359l-58.1657 96.6634c-20.8352,35.5 -39.5004,62.5003 -55.8364,81.001 -16.5005,18.5007 -33.1655,31.1653 -50.1648,37.999 -16.8347,6.83364 -38.1686,10.3353 -63.8321,10.3353zm83.0012 300.835l-133.835 0 0 -196.834 129.834 0c34.8315,0 64.1663,2.99775 87.9992,8.9984 23.6632,6.00065 41.8297,16.336 54.3298,30.8362 12.5001,14.4951 18.8349,34.3328 18.8349,59.8317 0,19.8325 -4.99797,37.3305 -15.1636,52.4992 -10.0011,15.1687 -24.0026,26.5016 -42.0045,33.9985 -16.8296,7.16787 -50.1648,10.6695 -99.9954,10.6695z"
     id="path3110" /></glyph>
  </font><style
     type="text/css"
     id="style3112">
   
    @font-face { font-family:&quot;Bodoni Bk BT&quot;;src:url(&quot;#FontID1&quot;) format(svg)}
    @font-face { font-family:&quot;Arial Rounded MT Bold&quot;;src:url(&quot;#FontID0&quot;) format(svg)}
    .str0 {stroke:#1F1A17;stroke-width:0.0762}
    .fil1 {fill:#1F1A17}
    .fil4 {fill:#969594}
    .fil3 {fill:white}
    .fil2 {fill:#560100}
    .fil0 {fill:#D10002}
    .fnt0 {font-weight:normal;font-size:19.4479;font-family:'Arial Rounded MT Bold'}
    .fnt2 {font-weight:normal;font-size:19.4479;font-family:'Arial Rounded MT Bold'}
    .fnt4 {font-weight:normal;font-size:19.4479;font-family:'Arial Rounded MT Bold'}
    .fnt6 {font-weight:normal;font-size:19.4479;font-family:'Arial Rounded MT Bold'}
    .fnt8 {font-weight:normal;font-size:19.4479;font-family:'Arial Rounded MT Bold'}
    .fnt1 {font-style:italic;font-weight:normal;font-size:22.3077;font-family:'Bodoni Bk BT'}
    .fnt3 {font-style:italic;font-weight:normal;font-size:22.3077;font-family:'Bodoni Bk BT'}
    .fnt5 {font-style:italic;font-weight:normal;font-size:22.3077;font-family:'Bodoni Bk BT'}
    .fnt7 {font-style:italic;font-weight:normal;font-size:22.3077;font-family:'Bodoni Bk BT'}
    .fnt9 {font-style:italic;font-weight:normal;font-size:22.3077;font-family:'Bodoni Bk BT'}
   
  </style><font
     id="FontID1-3"
     font-variant="normal"
     style="fill-rule:nonzero"
     font-style="normal,italic"
     font-weight="400"
     horiz-origin-x="0"
     horiz-origin-y="0"
     horiz-adv-x="1024"
     vert-origin-x="512"
     vert-origin-y="768"
     vert-adv-y="1024">
	<font-face
   font-family="Bodoni Bk BT"
   id="font-face3075-6">
	</font-face>
   <missing-glyph
   id="missing-glyph3077-7"><path
     d="M0 0z"
     id="path3079-5" /></missing-glyph>
   <glyph
   unicode="m"
   horiz-adv-x="711"
   id="glyph3081-3"><path
     d="M0.999655 0l93.3355 358.831 -74.3331 0 0 21.0017c26.6634,0 52.9996,0.667931 78.6634,2.16517 25.6683,1.50172 51.1662,3.6669 76.1665,6.67034l-24.83 -91.8338c22.9965,31.33 46.4996,54.4969 70.33,69.6665 23.669,15.1652 48.6693,22.6648 74.6693,22.6648 26.6634,0 47.1676,-6.5 61.4989,-19.5 14.3314,-13 21.4993,-31.6662 21.4993,-55.8327 0,-4.83241 0,-8.49931 -0.165862,-11.1665 -0.165862,-2.66724 -0.502069,-4.66655 -0.833793,-6.33414 21.1676,31.0027 43.6665,54.1652 67.6672,69.6665 23.8348,15.5014 49.6645,23.1669 77.332,23.1669 26.6679,0 47.4993,-5.99793 62.5031,-18.1641 14.9993,-12.0003 22.499,-28.6672 22.499,-50.1665 0,-6.33414 -0.336207,-12.8341 -1.17,-19.8362 -0.82931,-6.99758 -2.16517,-13.6679 -3.66241,-19.8317l-63.0007 -221c-1.66759,-5.6662 -2.66724,-10.001 -3.16931,-13 -0.497586,-3.16931 -0.663448,-6.16827 -0.663448,-9.00138 0,-4.33483 1.49724,-7.83138 4.83241,-10.8348 3.16483,-2.8331 7.66551,-4.33034 13.1659,-4.33034 16.6669,0 32.9976,9.49896 49.001,28.331 16.1648,18.8365 32.6659,47.8355 49.6645,86.8355l18.0028 -8.33345c-16.0034,-48.1672 -35.8352,-84.0024 -59.8358,-107.667 -23.8348,-23.4986 -52.3317,-35.3331 -85.1679,-35.3331 -18.1641,0 -32.6659,4.83241 -43.1645,14.6676 -10.669,9.66482 -15.999,23.3328 -15.999,40.4972 0,6.16827 0.833793,13.3362 2.33103,21.1676 1.33586,8.00172 4.16896,18.6662 8.00172,31.9979l55.6669 193.337c2.66724,8.83103 4.50069,16.4965 5.6662,23.1669 1.16552,6.66586 1.66759,12.1662 1.66759,16.3307 0,9.83517 -3.33517,17.169 -10.001,22.3331 -6.66586,5.00276 -16.3352,7.49965 -28.999,7.49965 -27.17,0 -55.1693,-14.4972 -84.0024,-43.6665 -28.999,-29.1648 -48.6648,-63.4983 -59.1679,-103.332l-56.1645 -210.833 -72.6655 0 73.6651 277.832c0.331724,0.999655 0.833793,2.50138 1.50172,4.83241 5.16414,19.5 7.83138,32.5 7.83138,39 0,11.8345 -3.6669,20.67 -10.8348,26.8338 -7.16345,6.16827 -17.1645,9.3331 -30.1645,9.3331 -26.5021,0 -53.6676,-14.1655 -81.8327,-42.6669 -28.1652,-28.4969 -47.3334,-61.3331 -57.5003,-98.3293l-59.002 -216.835 -70.832 0z"
     id="path3083-5" /></glyph>
   <glyph
   unicode="u"
   horiz-adv-x="496"
   id="glyph3085-6"><path
     d="M17.9983 358.831l0 21.0017c29.3352,0 56.6665,0.667931 82.3348,2.16517 25.5024,1.50172 49.3327,3.6669 71.5,6.67034l-81.1648 -311c-1.50172,-7.49965 -2.66724,-12.8341 -3.16931,-15.8331 -0.497586,-3.16931 -0.663448,-5.67069 -0.663448,-7.67 0,-11.0007 3.33069,-19.5 9.99655,-25.3321 6.66586,-5.83207 16.3352,-8.83103 29.0034,-8.83103 34.4993,0 65.6634,16.6624 93.1651,49.8303 27.4972,33.1679 49.4986,80.5014 66.1655,142l44.8321 168 71.8362 0 -80.1696 -304.169c-1.16552,-5.16414 -2.33103,-10.4986 -3.33069,-15.999 -0.999655,-5.6662 -1.50172,-10.1669 -1.50172,-13.6634 0,-7.50414 1.99931,-13.1703 5.83655,-17.169 3.99862,-3.83276 9.66482,-5.83207 17.1645,-5.83207 17.1645,0 33.6655,9.3331 49.4986,27.8334 15.8331,18.5003 31.6662,46.9972 47.6696,85.3338l18.9979 -8.33345c-14.3314,-44.1686 -33.6655,-78.6679 -57.832,-103.166 -24.3324,-24.5028 -50.6686,-36.8348 -79.3358,-36.8348 -21.4993,0 -38.4979,4.83241 -51.0003,14.3314 -12.6638,9.66931 -18.8321,22.6693 -18.8321,38.8341 0,4.66655 0.336207,11.1665 1.16552,19.8362 0.833793,8.49931 1.33586,14.3314 1.66759,17.3303 -24.6641,-31.3345 -49.001,-54.1652 -72.9972,-68.6669 -23.8348,-14.4972 -48.8352,-21.6652 -74.8351,-21.6652 -26.8338,0 -47.6652,5.99793 -63.0007,17.8324 -15.331,11.8345 -23.001,27.9993 -23.001,48.4989 0,4.0031 0.336207,8.49931 1.17,13.6679 0.833793,5.16862 2.16517,11.6686 3.6669,19.0024l68.8327 271.996 -73.6696 0z"
     id="path3087-2" /></glyph>
   <glyph
   unicode="t"
   horiz-adv-x="273"
   id="glyph3089-9"><path
     d="M2.99896 88.8348l77.1662 269.996 -65.9996 0 0 21.0017 71.8362 0 29.3307 105.999 71.6658 0 -28.6627 -105.999 72.6655 0 0 -21.0017 -79.9993 0 -82.1689 -292.832c-1.16552,-3.6669 -2.16517,-7.33379 -2.8331,-11.3324 -0.667931,-3.83276 -0.999655,-7.16793 -0.999655,-9.83517 0,-5.83207 1.99931,-10.3328 5.83207,-13.3317 4.0031,-3.16483 9.66931,-4.66655 17.169,-4.66655 15.4969,0 32.1638,10.1669 49.6645,30.3348 17.6665,20.1634 36.669,50.83 57.1686,91.8293l19.9976 -8.83103c-22.9965,-51.0003 -47.1631,-89.3324 -72.4996,-114.499 -25.1662,-25.1662 -52,-37.8345 -80.331,-37.8345 -19.8362,0 -35.8352,5.16414 -48.3331,15.6672 -12.3365,10.3328 -18.5003,23.8303 -18.5003,40.4972 0,5.50034 0.667931,12.0003 1.99931,19.3341 1.33138,7.33379 3.16483,15.8331 5.83207,25.5024z"
     id="path3091-1" /></glyph>
  </font><font
     id="FontID0-2"
     font-variant="normal"
     style="fill-rule:nonzero"
     font-weight="400"
     horiz-origin-x="0"
     horiz-origin-y="0"
     horiz-adv-x="1024"
     vert-origin-x="512"
     vert-origin-y="768"
     vert-adv-y="1024">
	<font-face
   font-family="Arial Rounded MT Bold"
   id="font-face3094-7">
	</font-face>
   <missing-glyph
   id="missing-glyph3096-0"><path
     d="M0 0z"
     id="path3098-9" /></missing-glyph>
   <glyph
   unicode="A"
   horiz-adv-x="719"
   id="glyph3100-3"><path
     d="M536.166 81.1656l-34.1682 89.8349 -290.998 0 -34.1682 -91.8351c-13.4976,-35.8342 -24.8304,-59.9962 -34.3328,-72.4963 -9.33263,-12.5001 -24.8304,-18.8349 -46.3341,-18.8349 -18.1665,0 -34.3328,6.66396 -48.3291,19.997 -14.0015,13.3331 -20.9997,28.5018 -20.9997,45.5011 0,9.66685 1.66599,19.8325 4.83343,30.1678 3.33198,10.4998 8.66417,25.0001 16.1663,43.5008l183.166 464.832c5.16251,13.3331 11.4974,29.3348 18.8298,48 7.33755,18.8349 15.0042,34.3328 23.3341,46.6683 8.33509,12.3304 19.3337,22.3315 32.8365,29.9981 13.4976,7.66664 30.1626,11.5025 50.0003,11.5025 20.1667,0 36.9963,-3.83589 50.499,-11.5025 13.4976,-7.66664 24.4962,-17.498 32.8313,-29.4993 8.16541,-12.0013 15.1687,-25.0001 20.9997,-38.832 5.66642,-13.8318 12.8343,-32.3325 21.6681,-55.3325l186.997 -462.004c14.67,-35.1658 22.0024,-60.6646 22.0024,-76.6664 0,-16.5005 -6.99818,-31.6641 -20.8352,-45.5011 -13.8318,-13.8318 -30.4969,-20.83 -50.0003,-20.83 -11.3328,0 -21.1642,2.00022 -29.3296,6.16519 -8.17055,4.00043 -15.0042,9.50231 -20.5009,16.5005 -5.50188,6.99818 -11.5025,17.8323 -17.8323,32.3325 -6.33487,14.5003 -11.8368,27.17 -16.336,38.3332zm-287.167 198.669l214.003 0 -108.001 295.333 -106.001 -295.333z"
     id="path3102-6" /></glyph>
   <glyph
   unicode="E"
   horiz-adv-x="666"
   id="glyph3104-0"><path
     d="M549.833 603.998l-326.668 0 0 -175.834 300.835 0c22.1669,0 38.6674,-4.99797 49.5015,-14.8294 10.8341,-10.0011 16.3308,-22.9999 16.3308,-39.3359 0,-16.3308 -5.3322,-29.4993 -15.9966,-39.8346 -10.8341,-10.1656 -27.5043,-15.3333 -49.8357,-15.3333l-300.835 0 0 -203.667 337.836 0c22.8302,0 39.9992,-5.3322 51.4966,-15.832 11.6671,-10.6644 17.3335,-24.6659 17.3335,-42.1639 0,-16.9993 -5.66642,-30.6666 -17.3335,-41.3361 -11.4974,-10.4998 -28.6663,-15.832 -51.4966,-15.832l-394.001 0c-31.4995,0 -54.3349,6.99818 -68.1667,20.9997 -13.8318,14.0015 -20.6655,36.6672 -20.6655,67.8325l0 538.166c0,20.8352 3.16744,37.8344 9.33263,51.0029 6.16519,13.1634 15.832,22.8302 29.0006,28.8309 13.1634,6.00065 29.9981,9.00354 50.499,9.00354l382.833 0c23.1645,0 40.3334,-5.16765 51.5017,-15.3333 11.1632,-10.3353 16.8296,-23.6684 16.8296,-40.3334 0,-17.0044 -5.66642,-30.502 -16.8296,-40.8373 -11.1683,-10.1656 -28.3372,-15.3333 -51.5017,-15.3333z"
     id="path3106-6" /></glyph>
   <glyph
   unicode="R"
   horiz-adv-x="719"
   id="glyph3108-2"><path
     d="M273.001 306.167l-50.8333 0 0 -229.999c0,-30.1678 -6.6691,-52.4992 -20.0022,-66.835 -13.3331,-14.3306 -30.8311,-21.4985 -52.3347,-21.4985 -22.9999,0 -40.9967,7.49695 -53.6665,22.5011 -12.6646,14.999 -18.9995,36.8317 -18.9995,65.8323l0 550.831c0,31.1705 7.00333,53.8361 20.9997,67.8325 14.0015,14.0015 36.6672,21.0048 67.8377,21.0048l235.83 0c32.5022,0 60.3356,-1.33691 83.5,-4.17012 23.1696,-2.66353 43.9996,-8.32995 62.5003,-16.8347 22.5011,-9.49717 42.3336,-22.9999 59.6671,-40.4979 17.1689,-17.6677 30.3323,-37.999 39.1662,-61.3331 8.9984,-23.1645 13.5027,-47.8355 13.5027,-73.9977 0,-53.3374 -15.0042,-96.0001 -45.1668,-127.834 -30.1678,-32.0035 -75.8334,-54.4995 -137.002,-67.8325 25.6686,-13.6673 50.3345,-34.0037 73.8332,-60.6698 23.3341,-26.6661 44.3338,-54.9982 62.6649,-85.166 18.3362,-30.1678 32.6668,-57.3327 43.0021,-81.4998 10.1656,-24.3317 15.3333,-41.0019 15.3333,-50.0003 0,-9.50231 -2.99775,-18.8349 -8.9984,-28.1676 -6.00065,-9.16808 -14.1661,-16.5005 -24.671,-21.9972 -10.4998,-5.33734 -22.496,-8.00086 -36.1633,-8.00086 -16.1663,0 -30.0032,3.83075 -41.0019,11.4974 -10.9986,7.66664 -20.5009,17.3335 -28.4967,29.0006 -8.00086,11.6671 -18.8349,29.0006 -32.5022,51.8359l-58.1657 96.6634c-20.8352,35.5 -39.5004,62.5003 -55.8364,81.001 -16.5005,18.5007 -33.1655,31.1653 -50.1648,37.999 -16.8347,6.83364 -38.1686,10.3353 -63.8321,10.3353zm83.0012 300.835l-133.835 0 0 -196.834 129.834 0c34.8315,0 64.1663,2.99775 87.9992,8.9984 23.6632,6.00065 41.8297,16.336 54.3298,30.8362 12.5001,14.4951 18.8349,34.3328 18.8349,59.8317 0,19.8325 -4.99797,37.3305 -15.1636,52.4992 -10.0011,15.1687 -24.0026,26.5016 -42.0045,33.9985 -16.8296,7.16787 -50.1648,10.6695 -99.9954,10.6695z"
     id="path3110-6" /></glyph>
  </font><style
     type="text/css"
     id="style3112-1">
   
    @font-face { font-family:&quot;Bodoni Bk BT&quot;;src:url(&quot;#FontID1&quot;) format(svg)}
    @font-face { font-family:&quot;Arial Rounded MT Bold&quot;;src:url(&quot;#FontID0&quot;) format(svg)}
    .str0 {stroke:#1F1A17;stroke-width:0.0762}
    .fil1 {fill:#1F1A17}
    .fil4 {fill:#969594}
    .fil3 {fill:white}
    .fil2 {fill:#560100}
    .fil0 {fill:#D10002}
    .fnt0 {font-weight:normal;font-size:19.4479;font-family:'Arial Rounded MT Bold'}
    .fnt2 {font-weight:normal;font-size:19.4479;font-family:'Arial Rounded MT Bold'}
    .fnt4 {font-weight:normal;font-size:19.4479;font-family:'Arial Rounded MT Bold'}
    .fnt6 {font-weight:normal;font-size:19.4479;font-family:'Arial Rounded MT Bold'}
    .fnt8 {font-weight:normal;font-size:19.4479;font-family:'Arial Rounded MT Bold'}
    .fnt1 {font-style:italic;font-weight:normal;font-size:22.3077;font-family:'Bodoni Bk BT'}
    .fnt3 {font-style:italic;font-weight:normal;font-size:22.3077;font-family:'Bodoni Bk BT'}
    .fnt5 {font-style:italic;font-weight:normal;font-size:22.3077;font-family:'Bodoni Bk BT'}
    .fnt7 {font-style:italic;font-weight:normal;font-size:22.3077;font-family:'Bodoni Bk BT'}
    .fnt9 {font-style:italic;font-weight:normal;font-size:22.3077;font-family:'Bodoni Bk BT'}
   
  </style></defs>
 






<path
   d="M 28.101664,16.979625 H 27.44651 v 2.9671 q 0,0.58585 -0.258281,0.86304 -0.258281,0.27718 -0.674053,0.27718 -0.447271,0 -0.692952,-0.28978 -0.245682,-0.28978 -0.245682,-0.85044 v -7.10591 q 0,-0.60476 0.27088,-0.87564 0.270881,-0.27088 0.875637,-0.27088 h 3.042688 q 0.629961,0 1.077226,0.0567 0.44727,0.0504 0.806346,0.21418 0.434671,0.18269 0.768548,0.52286 0.333876,0.34018 0.503962,0.79375 0.17639,0.44727 0.17639,0.95123 0,1.03313 -0.585863,1.65049 -0.579558,0.61736 -1.763878,0.87564 0.497668,0.26458 0.951238,0.78114 0.453565,0.51657 0.806341,1.10243 0.359075,0.57956 0.554364,1.05202 0.201584,0.46617 0.201584,0.64256 0,0.18269 -0.119693,0.36537 -0.113389,0.17639 -0.314978,0.27718 -0.201584,0.1071 -0.466164,0.1071 -0.314978,0 -0.529166,-0.15119 -0.214184,-0.14489 -0.371675,-0.37168 -0.151187,-0.22678 -0.415767,-0.66775 l -0.749649,-1.24731 q -0.403173,-0.68666 -0.72445,-1.04573 -0.314978,-0.35908 -0.642555,-0.49137 -0.327577,-0.13229 -0.825244,-0.13229 z m 1.070926,-3.88053 h -1.72608 v 2.53873 h 1.675682 q 0.674053,0 1.133923,-0.1134 0.45987,-0.11969 0.699252,-0.39687 0.245681,-0.28348 0.245681,-0.77484 0,-0.38428 -0.195284,-0.67406 -0.195289,-0.29608 -0.541765,-0.44097 -0.327577,-0.13859 -1.291409,-0.13859 z m 11.780182,0.0378 h -4.214408 v 2.26784 h 3.880528 q 0.42837,0 0.63626,0.19529 0.21418,0.18899 0.21418,0.50396 0,0.31498 -0.20788,0.51657 -0.20789,0.19528 -0.64256,0.19528 h -3.880528 v 2.62692 h 4.359298 q 0.44097,0 0.66145,0.20789 0.22678,0.20158 0.22678,0.54176 0,0.32758 -0.22678,0.53546 -0.22048,0.20159 -0.66145,0.20159 h -5.083748 q -0.611056,0 -0.881937,-0.27088 -0.264585,-0.27088 -0.264585,-0.87564 v -6.94212 q 0,-0.40317 0.119693,-0.65515 0.119694,-0.25829 0.371675,-0.37168 0.258281,-0.11969 0.655154,-0.11969 h 4.938858 q 0.44727,0 0.66145,0.20159 0.22049,0.19528 0.22049,0.51656 0,0.32758 -0.22049,0.52916 -0.21418,0.19529 -0.66145,0.19529 z m 8.42881,6.74683 -0.44097,-1.15912 h -3.75454 l -0.44097,1.18432 q -0.25828,0.69295 -0.44096,0.93863 -0.18269,0.23939 -0.59847,0.23939 -0.35277,0 -0.62365,-0.25829 -0.27088,-0.25828 -0.27088,-0.58585 0,-0.18899 0.063,-0.39058 0.063,-0.20158 0.20788,-0.56066 l 2.36233,-5.99718 q 0.1008,-0.25828 0.23939,-0.61736 0.14489,-0.36537 0.30238,-0.60476 0.16379,-0.23938 0.42207,-0.38427 0.26458,-0.15119 0.64886,-0.15119 0.39056,0 0.64885,0.15119 0.26458,0.14489 0.42207,0.37797 0.16379,0.23309 0.27088,0.50397 0.11339,0.26458 0.28348,0.71185 l 2.41273,5.95939 q 0.28348,0.68035 0.28348,0.98903 0,0.32127 -0.27088,0.59216 -0.26458,0.26458 -0.64255,0.26458 -0.22049,0 -0.37798,-0.0819 -0.15749,-0.0756 -0.26458,-0.20788 -0.10709,-0.13859 -0.23308,-0.41577 -0.1197,-0.28348 -0.20789,-0.49767 z m -3.70414,-2.56392 h 2.7592 l -1.39219,-3.81124 z"
   id="_231672176-8"
   style="font-size:25.4153px;line-height:0%;font-family:'Arial Rounded MT Bold';clip-rule:evenodd;fill:#ffffff;fill-rule:evenodd;stroke-width:0.663388;image-rendering:optimizeQuality;shape-rendering:geometricPrecision;text-rendering:geometricPrecision"
   class="fil3 fnt2"
   aria-label="REA" /><path
   d="m 59.191052,12.725165 -0.24568,1.09834 h -2.80365 l -0.86711,3.72134 q -0.0723,0.28181 -0.13006,0.65034 -0.0578,0.36129 -0.0578,0.57807 0,0.52749 0.26736,0.78762 0.26735,0.25291 0.98995,0.25291 0.29626,0 0.70091,-0.10116 0.41188,-0.10117 0.55639,-0.15897 h 0.0723 l -0.2529,1.17059 q -0.40466,0.10117 -0.86711,0.1662 -0.45523,0.065 -0.8093,0.065 -0.99718,0 -1.54635,-0.43355 -0.54194,-0.44078 -0.54194,-1.38738 0,-0.23123 0.0289,-0.45523 0.0362,-0.23123 0.0939,-0.52026 l 1.0044,-4.33555 h -0.91769 l 0.24568,-1.09834 h 0.91769 l 0.54194,-2.31951 h 1.35848 l -0.54195,2.31951 z m 8.33147,0 -1.86428,8.07134 h -1.35847 l 0.20955,-0.89601 q -0.77317,0.52749 -1.44518,0.82375 -0.66478,0.29627 -1.40905,0.29627 -1.04053,0 -1.62583,-0.52027 -0.5853,-0.52749 -0.5853,-1.53189 0,-0.24568 0.0289,-0.47691 0.0361,-0.23123 0.0939,-0.52749 l 1.20673,-5.23879 h 1.35847 l -1.06221,4.59568 q -0.065,0.28181 -0.12284,0.64311 -0.0578,0.36129 -0.0578,0.57084 0,0.62143 0.31072,0.93215 0.31794,0.31071 1.07666,0.31071 0.53471,0 1.22117,-0.31071 0.69369,-0.31072 1.27899,-0.71537 l 1.38737,-6.02641 z m 13.93155,1.7848 q 0,0.23846 -0.0361,0.50582 -0.0289,0.26736 -0.0939,0.54194 l -1.21395,5.23878 h -1.35847 l 1.06221,-4.59567 q 0.0867,-0.38298 0.13729,-0.70814 0.0578,-0.32517 0.0578,-0.60698 0,-0.54917 -0.27459,-0.84543 -0.27458,-0.29626 -1.04776,-0.29626 -0.57084,0 -1.20672,0.31794 -0.63588,0.31794 -1.26453,0.74427 -0.0145,0.18064 -0.0506,0.41187 -0.0289,0.23123 -0.0723,0.41188 l -1.19227,5.16652 h -1.35847 l 1.06221,-4.59567 q 0.0939,-0.44801 0.15174,-0.72982 0.0578,-0.28904 0.0578,-0.5853 0,-0.65756 -0.36129,-0.89601 -0.36129,-0.24568 -0.9755,-0.24568 -0.43355,0 -0.96827,0.224 -0.53471,0.21678 -1.4235,0.80208 l -1.3946,6.0264 h -1.35848 l 1.86429,-8.07134 h 1.35847 l -0.20955,0.89602 q 0.75872,-0.52749 1.40183,-0.82376 0.65033,-0.29626 1.36569,-0.29626 0.81653,0 1.32234,0.34685 0.51304,0.34684 0.67924,0.96104 0.95382,-0.69369 1.71254,-0.99717 0.75872,-0.31072 1.49576,-0.31072 1.06221,0 1.59693,0.52749 0.53471,0.52749 0.53471,1.48131 z"
   id="_232863264-7"
   style="font-style:italic;font-size:29.1526px;line-height:0%;font-family:'Bodoni Bk BT';clip-rule:evenodd;fill:#ffffff;fill-rule:evenodd;stroke-width:0.663388;image-rendering:optimizeQuality;shape-rendering:geometricPrecision;text-rendering:geometricPrecision"
   class="fil3 fnt3"
   aria-label="tum" /><path
   style="clip-rule:evenodd;fill:#1f1a17;fill-rule:evenodd;stroke-width:0.663388;image-rendering:optimizeQuality;shape-rendering:geometricPrecision;text-rendering:geometricPrecision"
   d="m 26.575675,25.948915 c -1.954807,1.63393 -4.471238,2.61813 -7.217603,2.61813 -6.219268,0 -11.2630075,-5.04374 -11.2630075,-11.26295 0,-0.31385 0.01376,-0.62471 0.03888,-0.93219 0.621991,3.41247 3.6099615,6.00048 7.2016135,6.00048 2.062073,0 3.924736,-0.85351 5.25543,-2.22573 z"
   class="fil1"
   id="_232643472-9" /><path
   style="clip-rule:evenodd;fill:#ffffff;fill-rule:evenodd;stroke-width:0.663388;image-rendering:optimizeQuality;shape-rendering:geometricPrecision;text-rendering:geometricPrecision"
   d="M 27.201249,4.352235 C 24.31186,1.653235 20.433227,5.0198519e-6 16.168634,5.0198519e-6 7.2408185,5.0198519e-6 -2.5036561e-6,7.240825 -2.5036561e-6,16.168575 c 0,2.98273 0.8094669936561,5.77672 2.2186370036561,8.1758 l 0.07264,-0.0397 c -0.85126,-1.55916 -1.33546801,-3.34759 -1.33546801,-5.24893 0,-6.05833 4.91312301,-10.97145 10.97158451,-10.97145 3.104192,0 5.907275,1.29049 7.903281,3.36331 z"
   class="fil3"
   id="_232645920-2" /></svg>
